<?xml version="1.0" encoding="UTF-8" standalone="no"?><svg xmlns="http://www.w3.org/2000/svg" xmlns:xlink="http://www.w3.org/1999/xlink" contentStyleType="text/css" height="190px" preserveAspectRatio="none" style="width:705px;height:190px;background:#FFFFFF;" version="1.1" viewBox="0 0 705 190" width="705px" zoomAndPan="magnify"><defs/><g><rect fill="#FFBBCC" height="36.2969" rx="12.5" ry="12.5" style="stroke:#181818;stroke-width:1.5;" width="66" x="10" y="76.2969"/><text fill="#000000" font-family="sans-serif" font-size="14" lengthAdjust="spacing" textLength="42" x="20" y="99.292">_ OR -</text><rect fill="#90EE90" height="36.2969" rx="12.5" ry="12.5" style="stroke:#181818;stroke-width:1.5;" width="143" x="126" y="20"/><text fill="#000000" font-family="sans-serif" font-size="14" lengthAdjust="spacing" textLength="119" x="136" y="42.9951">Google-friendly?</text><rect fill="#FFA500" height="36.2969" rx="12.5" ry="12.5" style="stroke:#181818;stroke-width:1.5;" width="110" x="319" y="20"/><text fill="#000000" font-family="sans-serif" font-size="14" lengthAdjust="spacing" textLength="90" x="329" y="42.9951">If yes, then -</text><path d="M269,38.1484 L279,38.1484 C294,38.1484 294,38.1484 309,38.1484 L319,38.1484 " fill="none" style="stroke:#181818;stroke-width:1.0;"/><path d="M76,94.4453 L86,94.4453 C101,94.4453 101,38.1484 116,38.1484 L126,38.1484 " fill="none" style="stroke:#181818;stroke-width:1.0;"/><rect fill="#90EE90" height="36.2969" rx="12.5" ry="12.5" style="stroke:#181818;stroke-width:1.5;" width="128" x="126" y="76.2969"/><text fill="#000000" font-family="sans-serif" font-size="14" lengthAdjust="spacing" textLength="104" x="136" y="99.292">Programming?</text><rect fill="#FFA500" height="36.2969" rx="12.5" ry="12.5" style="stroke:#181818;stroke-width:1.5;" width="111" x="304" y="76.2969"/><text fill="#000000" font-family="sans-serif" font-size="14" lengthAdjust="spacing" textLength="91" x="314" y="99.292">If yes, then _</text><path d="M254,94.4453 L264,94.4453 C279,94.4453 279,94.4453 294,94.4453 L304,94.4453 " fill="none" style="stroke:#181818;stroke-width:1.0;"/><path d="M76,94.4453 L86,94.4453 C101,94.4453 101,94.4453 116,94.4453 L126,94.4453 " fill="none" style="stroke:#181818;stroke-width:1.0;"/><rect fill="#90EE90" height="36.2969" rx="12.5" ry="12.5" style="stroke:#181818;stroke-width:1.5;" width="166" x="126" y="132.5938"/><text fill="#000000" font-family="sans-serif" font-size="14" lengthAdjust="spacing" textLength="146" x="136" y="155.5889">Document Grammar</text><text fill="#000000" font-family="sans-serif" font-size="14" lengthAdjust="spacing" textLength="128" x="345" y="146.4404">1. - is meaningful.</text><path d="M292,150.7422 L302,150.7422 C317,150.7422 317,141.5938 332,141.5938 L342,141.5938 " fill="none" style="stroke:#181818;stroke-width:1.0;"/><text fill="#000000" font-family="sans-serif" font-size="14" lengthAdjust="spacing" textLength="348" x="345" y="164.7373">2. In case of file naming, _ can be used as SPACE.</text><path d="M292,150.7422 L302,150.7422 C317,150.7422 317,159.8906 332,159.8906 L342,159.8906 " fill="none" style="stroke:#181818;stroke-width:1.0;"/><path d="M76,94.4453 L86,94.4453 C101,94.4453 101,150.7422 116,150.7422 L126,150.7422 " fill="none" style="stroke:#181818;stroke-width:1.0;"/><!--MD5=[83360636173ba0eb97e8f808dc9c792d]
@startmindmap

<style>
mindmapDiagram {
  .green {
    BackgroundColor lightgreen
  }
  .rose {
    BackgroundColor #FFBBCC
  }
}
</style>

* _ OR - <<rose>>

right side

** Google-friendly? <<green>>
***[#Orange] If yes, then -

** Programming? <<green>>
***[#Orange] If yes, then _

**[#lightgreen] Document Grammar
***_ 1. - is meaningful.
***_ 2. In case of file naming, _ can be used as SPACE.

@endmindmap

PlantUML version 1.2022.3beta2(Unknown compile time)
(GPL source distribution)
Java Runtime: Java(TM) SE Runtime Environment
JVM: Java HotSpot(TM) 64-Bit Server VM
Default Encoding: UTF-8
Language: en
Country: US
--></g></svg>