<?xml version="1.0" encoding="UTF-8" standalone="no"?>
<!-- Created with Inkscape (http://www.inkscape.org/) -->

<svg
   xmlns:dc="http://purl.org/dc/elements/1.1/"
   xmlns:cc="http://creativecommons.org/ns#"
   xmlns:rdf="http://www.w3.org/1999/02/22-rdf-syntax-ns#"
   xmlns:svg="http://www.w3.org/2000/svg"
   xmlns="http://www.w3.org/2000/svg"
   xmlns:sodipodi="http://sodipodi.sourceforge.net/DTD/sodipodi-0.dtd"
   xmlns:inkscape="http://www.inkscape.org/namespaces/inkscape"
   width="147.3923mm"
   height="49.898418mm"
   viewBox="0 0 522.25619 176.80542"
   id="svg2"
   version="1.1"
   inkscape:version="0.91 r13725"
   sodipodi:docname="logo_2path.svg">
  <defs
     id="defs4" />
  <sodipodi:namedview
     id="base"
     pagecolor="#ffffff"
     bordercolor="#666666"
     borderopacity="1.0"
     inkscape:pageopacity="0.0"
     inkscape:pageshadow="2"
     inkscape:zoom="0.73527132"
     inkscape:cx="202.37285"
     inkscape:cy="34.001176"
     inkscape:document-units="px"
     inkscape:current-layer="layer1"
     showgrid="false"
     showborder="true"
     inkscape:window-width="1366"
     inkscape:window-height="697"
     inkscape:window-x="-4"
     inkscape:window-y="-4"
     inkscape:window-maximized="1"
     fit-margin-top="0"
     fit-margin-left="0"
     fit-margin-right="0"
     fit-margin-bottom="0" />
  <metadata
     id="metadata7">
    <rdf:RDF>
      <cc:Work
         rdf:about="">
        <dc:format>image/svg+xml</dc:format>
        <dc:type
           rdf:resource="http://purl.org/dc/dcmitype/StillImage" />
        <dc:title></dc:title>
      </cc:Work>
    </rdf:RDF>
  </metadata>
  <g
     inkscape:label="Layer 1"
     inkscape:groupmode="layer"
     id="layer1"
     transform="translate(-138.72428,-350.58044)">
    <g
       style="font-style:normal;font-weight:normal;font-size:40px;line-height:125%;font-family:sans-serif;letter-spacing:0px;word-spacing:0px;fill:#000000;fill-opacity:1;stroke:none;stroke-width:1px;stroke-linecap:butt;stroke-linejoin:miter;stroke-opacity:1"
       id="text4136">
      <path
         d="m 177.39618,429.16946 q 21.09375,-5.625 23.90625,-6.32812 1.40625,-0.70313 4.21875,-0.70313 1.40625,0 6.32812,2.8125 1.40625,0.70313 2.10938,1.40625 4.92187,4.21875 4.92187,12.65625 -1.40625,11.25 -2.10937,23.20313 -2.10938,13.35937 -4.92188,21.09375 -3.51562,7.03125 -7.73437,13.35937 -4.21875,4.92188 -9.84375,5.625 -2.8125,0.70313 -4.21875,0.70313 -0.70313,0 -2.10938,-0.70313 -0.70312,0 -0.70312,0 -1.40625,-2.10937 -0.70313,-4.21875 1.40625,-4.21875 0,-7.73437 -0.70312,-0.70313 -1.40625,-2.10938 -0.70312,-1.40625 -1.40625,-2.10937 -0.70312,-1.40625 4.92188,0 4.92187,0 7.73437,0 2.10938,0 5.625,-7.73438 4.21875,-7.73437 4.92188,-20.39062 0,-1.40625 0,-4.21875 1.40625,-9.14063 0.70312,-15.46875 -0.70312,-6.32813 -2.10937,-7.03125 -1.40625,-1.40625 -3.51563,0 -2.8125,0 -13.35937,2.10937 -10.54688,2.10938 -11.25,4.21875 0,0 -0.70313,0.70313 -0.70312,1.40625 -2.10937,5.625 -1.40625,3.51562 -3.51563,2.8125 -2.10937,-0.70313 -3.51562,-2.8125 -2.10938,-2.8125 -1.40625,-4.92188 1.40625,-2.10937 2.10937,-6.32812 1.40625,-5.625 2.10938,-18.28125 1.40625,-14.0625 -0.70313,-16.17188 -2.10937,-3.51562 -0.70312,-4.21875 0.70312,-0.70312 1.40625,-0.70312 1.40625,-0.70313 2.10937,-0.70313 1.40625,0 5.625,4.21875 2.8125,4.21875 2.8125,7.73438 -0.70312,0.70312 -0.70312,4.92187 -0.70313,2.8125 -0.70313,4.21875 0,6.32813 -2.10937,15.46875 z m 25.3125,-59.76562 q 0,0 0.70312,0 2.10938,0 7.73438,6.32812 6.32812,4.92188 4.92187,8.4375 -1.40625,1.40625 -5.625,12.65625 -1.40625,4.21875 -2.10937,6.32813 -6.32813,16.875 -9.14063,18.28125 -3.51562,0 -4.21875,-2.10938 -1.40625,-3.51562 -1.40625,-6.32812 -0.70312,-3.51563 1.40625,-5.625 2.10938,-2.8125 4.92188,-15.46875 2.8125,-12.65625 0.70312,-12.65625 -14.76562,5.625 -18.28125,7.73437 -2.8125,2.8125 -4.21875,2.8125 -1.40625,-0.70312 -3.51562,-2.8125 0,-0.70312 -0.70313,-2.10937 -1.40625,-2.8125 -1.40625,-4.21875 -1.40625,-2.8125 0.70313,-2.8125 2.8125,0 7.03125,-0.70313 2.10937,-0.70312 8.4375,-2.8125 2.8125,0 4.21875,-0.70312 8.4375,-3.51563 9.84375,-4.21875 z m -57.65625,92.8125 q -0.70313,-1.40625 -0.70313,-2.10938 0,-0.70312 0.70313,-0.70312 0.70312,0.70312 4.92187,0 2.8125,0 4.92188,0 7.03125,-1.40625 15.46875,-3.51563 8.4375,-3.51562 14.0625,-4.21875 5.625,-2.10937 6.32812,-2.10937 2.10938,-1.40625 5.625,2.10937 3.51563,1.40625 4.21875,4.92188 0,2.10937 -2.10937,2.10937 -2.10938,0.70313 -6.32813,0.70313 -4.21875,-0.70313 -11.25,1.40625 -3.51562,1.40625 -10.54687,3.51562 -4.21875,1.40625 -6.32813,2.10938 -4.21875,1.40625 -9.84375,3.51562 -2.10937,0.70313 -2.10937,0.70313 -2.10938,0.70312 -4.21875,-2.10938 -2.10938,-3.51562 -2.8125,-6.32812 z m 120.9375,8.4375 q -4.92188,7.03125 -9.14063,11.25 -6.32812,6.32812 -11.95312,7.73437 -2.8125,0.70313 -3.51563,0.70313 0,-0.70313 2.8125,-2.8125 4.21875,-3.51563 8.4375,-10.54688 4.21875,-7.73437 12.65625,-21.09375 0,-0.70312 0.70313,-1.40625 8.4375,-12.65625 8.4375,-14.76562 0,-2.8125 -0.70313,-4.92188 -0.70312,-1.40625 0,-1.40625 0.70313,0 2.8125,0 1.40625,0 4.21875,2.8125 3.51563,2.8125 2.8125,6.32813 -0.70312,0.70312 -4.21875,7.03125 -3.51562,6.32812 -6.32812,10.54687 -2.10938,2.8125 -4.21875,6.32813 4.92187,0 6.32812,0 3.51563,0.70312 11.95313,7.03125 8.4375,4.92187 10.54687,8.4375 1.40625,2.10937 1.40625,7.03125 0,0.70312 0,4.21875 -1.40625,7.03125 -3.51562,7.03125 -2.8125,0 -4.21875,-2.8125 -0.70313,-2.8125 -8.4375,-11.25 -7.03125,-9.84375 -11.95313,-11.95313 -0.70312,-0.70312 -1.40625,-0.70312 -1.40625,-1.40625 -3.51562,-2.8125 z m -13.35938,-76.64063 q 0,-0.70312 -0.70312,-2.10937 -0.70313,-1.40625 -0.70313,-2.10938 0,-3.51562 -2.8125,-10.54687 -2.10937,-6.32813 -4.21875,-10.54688 -3.51562,-3.51562 -3.51562,-4.92187 -0.70313,-1.40625 2.8125,-1.40625 2.10937,-0.70313 4.21875,-0.70313 2.10937,0 4.21875,0 4.21875,0.70313 7.73437,3.51563 2.10938,2.8125 4.21875,11.95312 2.10938,8.4375 -1.40625,14.0625 4.92188,-1.40625 9.14063,-2.10937 14.0625,-3.51563 15.46875,-4.92188 1.40625,-1.40625 6.32812,4.21875 4.21875,3.51563 4.21875,7.73438 -1.40625,2.8125 -2.8125,2.10937 -0.70312,0 -3.51562,-0.70312 -4.21875,-0.70313 -7.73438,-0.70313 -9.84375,0 -21.79687,2.8125 -2.8125,0 -6.32813,1.40625 1.40625,1.40625 4.21875,3.51563 2.8125,4.21875 2.8125,7.03125 -0.70312,2.8125 -4.92187,5.625 -5.625,5.625 -11.25,16.875 2.10937,0 5.625,-0.70313 1.40625,0 2.10937,0 1.40625,-1.40625 4.21875,2.10938 0.70313,0.70312 1.40625,1.40625 0.70313,-0.70313 1.40625,-2.8125 0.70313,-1.40625 2.10938,-4.21875 6.32812,-9.84375 6.32812,-13.35938 0,-3.51562 0,-4.21875 -0.70312,-2.10937 0.70313,-1.40625 2.10937,0 4.21875,0.70313 2.10937,0.70312 2.8125,4.21875 0,4.21875 -0.70313,5.625 0,0.70312 -0.70312,1.40625 -3.51563,6.32812 -6.32813,11.95312 -6.32812,11.25 -18.98437,28.125 -12.65625,16.875 -20.39063,21.79688 -8.4375,5.625 -11.25,5.625 -1.40625,0 -1.40625,-0.70313 0,-0.70312 1.40625,-1.40625 3.51563,-2.8125 8.4375,-9.14062 6.32813,-6.32813 17.57813,-22.5 2.8125,-4.21875 8.4375,-10.54688 0.70312,-1.40625 1.40625,-2.10937 -2.8125,0 -4.92188,0 -4.92187,0.70312 -11.25,4.92187 -6.32812,4.21875 -9.14062,4.92188 -2.8125,0 -4.21875,-7.03125 -0.70313,-6.32813 -0.70313,-8.4375 0,-1.40625 2.8125,-1.40625 2.10938,0 4.21875,-0.70313 2.10938,-2.10937 4.21875,-2.8125 2.10938,-0.70312 8.4375,-13.35937 6.32813,-12.65625 6.32813,-14.0625 -0.70313,-0.70313 -2.10938,-2.8125 -1.40625,0.70312 -4.21875,1.40625 -2.8125,1.40625 -4.21875,2.10937 -10.54687,4.21875 -13.35937,6.32813 -2.10938,0.70312 -4.92188,-4.21875 -2.8125,-5.625 -1.40625,-5.625 0.70313,0 5.625,-1.40625 7.73438,-2.10938 13.35938,-4.21875 1.40625,0 3.51562,-0.70313 3.51563,-1.40625 9.84375,-2.8125 z"
         style="font-style:normal;font-variant:normal;font-weight:normal;font-stretch:normal;font-size:180px;font-family:FZSuXinShiLiuKaiS-R-GB;-inkscape-font-specification:FZSuXinShiLiuKaiS-R-GB"
         id="path4206" />
      <path
         d="m 417.86493,408.77884 q -0.70313,0 -1.40625,0.70312 -2.8125,0 -3.51563,1.40625 -2.8125,0.70313 -4.92187,2.10938 -2.10938,1.40625 -4.92188,-4.92188 -2.8125,-7.03125 -1.40625,-7.03125 0.70313,0 3.51563,-0.70312 4.92187,-0.70313 7.73437,-0.70313 8.4375,-0.70312 10.54688,-2.8125 2.10937,-3.51562 6.32812,4.21875 4.21875,6.32813 2.10938,8.4375 -2.10938,2.10938 -17.57813,21.79688 4.21875,2.8125 9.14063,6.32812 12.65625,9.14063 31.64062,16.17188 18.98438,6.32812 25.3125,7.73437 7.03125,0.70313 9.84375,2.10938 0.70313,0 0.70313,0 0,0.70312 -1.40625,0.70312 -1.40625,0.70313 -2.10938,0.70313 -2.8125,0 -9.14062,2.10937 -1.40625,0.70313 -2.10938,0.70313 -5.625,2.10937 -9.14062,4.21875 -2.8125,2.10937 -4.21875,3.51562 -1.40625,1.40625 -3.51563,1.40625 -2.10937,0 -15.46875,-8.4375 -13.35937,-7.73437 -23.20312,-16.17187 -2.10938,-2.10938 -6.32813,-6.32813 -4.92187,-4.21875 -7.03125,-6.32812 -8.4375,11.95312 -23.20312,27.42187 4.21875,2.10938 4.92187,4.21875 1.40625,0.70313 3.51563,8.4375 2.8125,4.21875 4.92187,14.0625 12.65625,-2.10937 18.28125,-4.21875 -0.70312,-3.51562 0,-4.92187 1.40625,-2.10938 4.21875,-9.14063 2.8125,-7.03125 0.70313,-7.03125 -18.98438,4.92188 -21.79688,6.32813 -0.70312,0 -0.70312,0.70312 -2.10938,0.70313 -3.51563,0 -0.70312,0 -2.8125,-4.21875 -2.10937,-4.21875 0,-4.21875 2.10938,0 14.0625,-2.10937 11.95313,-3.51563 14.0625,-4.21875 0.70313,0 1.40625,-0.70313 2.10938,-0.70312 2.8125,-1.40625 2.10938,-0.70312 9.14063,5.625 7.03125,7.03125 4.92187,10.54688 -0.70312,2.10937 -8.4375,9.84375 -2.8125,2.8125 -4.92187,4.92187 0,0 0.70312,0.70313 0.70313,0 0.70313,0.70312 4.21875,4.21875 3.51562,7.03125 -0.70312,2.10938 -2.8125,2.10938 -2.10937,-1.40625 -7.73437,-1.40625 -4.92188,-1.40625 -10.54688,0 -4.21875,0.70312 -9.14062,1.40625 2.8125,8.4375 1.40625,12.65625 -0.70313,2.10937 -2.10938,2.10937 -1.40625,0 -2.8125,-2.8125 1.40625,2.8125 -0.70312,-0.70312 -3.51563,-4.92188 -4.21875,-8.4375 0,-2.10938 -4.21875,-12.65625 -4.21875,-11.95313 -7.03125,-14.76563 -0.70313,-2.10937 -2.10938,-2.8125 -2.10937,2.10938 -4.21875,4.21875 -13.35937,11.25 -21.09375,14.76563 -2.10937,0.70312 -2.8125,0 0.70313,-1.40625 2.8125,-3.51563 6.32813,-4.92187 19.6875,-19.6875 13.35938,-14.0625 26.01563,-30.23437 0.70312,-0.70313 1.40625,-2.10938 1.40625,-0.70312 1.40625,-1.40625 -6.32813,-5.625 -9.14063,-5.625 -1.40625,0 -1.40625,0 -2.10937,4.21875 -4.92187,7.03125 -4.21875,4.92188 -6.32813,4.21875 -2.10937,-0.70312 -2.10937,-6.32812 0,-4.92188 2.10937,-7.03125 0.70313,-0.70313 2.8125,-3.51563 1.40625,-3.51562 2.8125,-5.625 4.21875,-6.32812 4.21875,-14.0625 0,-2.8125 -0.70312,-7.03125 0,-1.40625 0,-2.10937 -1.40625,-1.40625 0.70312,-1.40625 l 2.8125,0 q 2.10938,0 4.21875,4.21875 1.40625,2.8125 2.10938,6.32812 0,1.40625 -0.70313,4.92188 0,2.8125 -4.21875,12.65625 4.21875,0 10.54688,3.51562 0.70312,0 1.40625,0.70313 1.40625,0.70312 1.40625,1.40625 7.03125,-9.84375 11.25,-18.28125 z m 24.60937,-26.71875 q -4.21875,0.70312 -11.25,1.40625 -5.625,0 -16.875,2.10937 -3.51562,8.4375 -5.625,8.4375 -2.10937,0 -4.92187,-4.21875 -1.40625,-0.70312 -1.40625,-2.8125 -0.70313,0 -2.10938,0.70313 -2.10937,0.70312 -4.21875,0.70312 -10.54687,2.10938 -13.35937,3.51563 -2.8125,2.10937 -4.92188,-2.10938 0,-1.40625 -0.70312,-2.8125 -0.70313,-2.10937 0,-2.10937 0.70312,-0.70313 14.76562,-2.10938 -13.35937,1.40625 3.51563,-0.70312 0.70312,0 2.10937,0 2.8125,-0.70313 4.21875,-0.70313 0,-2.8125 0,-7.03125 0,-1.40625 -0.70312,-4.21875 0,-2.10937 -0.70313,-3.51562 -0.70312,-1.40625 -2.10937,-3.51563 -0.70313,-0.70312 -0.70313,-1.40625 -2.10937,-2.10937 -0.70312,-2.8125 1.40625,-1.40625 5.625,-2.10937 0,0 1.40625,0 3.51562,0 8.4375,4.21875 5.625,4.21875 6.32812,7.73437 0,2.10938 -2.10937,10.54688 7.73437,-1.40625 17.57812,-2.10938 22.5,-2.10937 24.60938,-4.21875 2.10937,-2.10937 7.03125,2.8125 2.8125,2.10938 8.4375,10.54688 3.51562,7.03125 1.40625,13.35937 -2.10938,5.625 -5.625,3.51563 -3.51563,-2.10938 -7.73438,-6.32813 -4.92187,-4.21875 -10.54687,-4.21875 -4.21875,0 -8.4375,1.40625 -4.21875,0.70313 -0.70313,-1.40625 0.70313,-0.70312 4.92188,-4.21875 -2.8125,2.10938 2.8125,-2.10937 4.92187,-4.21875 3.51562,-4.92188 -1.40625,-1.40625 -11.25,0.70313 z m -68.20312,8.4375 q -0.70313,6.32812 -0.70313,16.875 -0.70312,9.14062 -4.92187,12.65625 -4.21875,2.8125 -6.32813,-4.21875 -2.8125,-7.03125 -1.40625,-9.14063 1.40625,-1.40625 2.10938,-9.14062 2.10937,-8.4375 0.70312,-13.35938 0,-4.21875 -1.40625,-5.625 0,-1.40625 0.70313,-1.40625 1.40625,-0.70312 3.51562,-0.70312 2.8125,-0.70313 4.92188,3.51562 2.8125,3.51563 2.8125,10.54688 z"
         style="font-style:normal;font-variant:normal;font-weight:normal;font-stretch:normal;font-size:180px;font-family:FZSuXinShiLiuKaiS-R-GB;-inkscape-font-specification:FZSuXinShiLiuKaiS-R-GB"
         id="path4208" />
      <path
         d="m 551.45868,367.99759 q -1.40625,-2.10938 1.40625,-3.51563 2.10937,-2.10937 4.92187,-1.40625 7.03125,0 9.14063,4.21875 4.21875,6.32813 5.625,13.35938 2.10937,-0.70313 6.32812,-2.10938 3.51563,-1.40625 5.625,-2.10937 2.10938,-2.10938 7.03125,2.8125 4.21875,4.92187 3.51563,7.03125 0,1.40625 -2.10938,2.10937 -10.54687,0.70313 -19.6875,4.21875 l 0,2.8125 q 0,6.32813 0,11.95313 6.32813,-2.10938 11.95313,-5.625 2.10937,0 3.51562,2.10937 2.10938,2.10938 2.10938,3.51563 -0.70313,0.70312 -2.8125,2.8125 -1.40625,0.70312 -2.10938,1.40625 -1.40625,0.70312 -4.21875,2.10937 -5.625,2.8125 -9.14062,3.51563 0,9.14062 -1.40625,17.57812 2.8125,-1.40625 8.4375,-3.51562 4.92187,-2.10938 7.73437,-2.8125 1.40625,-1.40625 5.625,2.8125 4.92188,4.21875 4.92188,7.03125 0,2.10937 -0.70313,3.51562 -2.10937,0 -4.21875,-1.40625 -3.51562,-2.10937 -7.73437,-1.40625 -2.10938,0 -11.25,2.8125 -2.10938,0.70313 -3.51563,1.40625 -4.92187,28.125 -16.17187,54.84375 -4.21875,6.32813 -6.32813,10.54688 -2.10937,3.51562 -3.51562,2.8125 0,-0.70313 1.40625,-4.92188 0.70312,-4.21875 4.92187,-16.875 6.32813,-21.09375 10.54688,-42.89062 -16.17188,5.625 -37.96875,16.17187 -2.10938,0.70313 -5.625,2.8125 -1.40625,0.70313 -2.10938,0.70313 -1.40625,0 -3.51562,-1.40625 0,-1.40625 -1.40625,-2.8125 -0.70313,-2.10938 -1.40625,-2.8125 0,-0.70313 -0.70313,-0.70313 0,-1.40625 2.10938,-1.40625 0.70312,0 2.8125,-1.40625 8.4375,-2.8125 15.46875,-4.92187 16.17187,-6.32813 33.04687,-12.65625 1.40625,-8.4375 1.40625,-16.875 -0.70312,0 -2.10937,0.70312 -4.21875,1.40625 -6.32813,2.10938 -6.32812,1.40625 -7.03125,0.70312 -2.10937,-0.70312 -3.51562,-3.51562 -2.10938,-2.8125 -2.10938,-4.92188 0,-2.10937 2.8125,-1.40625 2.10938,0 9.84375,-1.40625 0.70313,0 1.40625,0 3.51563,-0.70312 7.73438,-2.8125 0,-7.73437 -0.70313,-14.76562 -5.625,1.40625 -11.25,3.51562 -2.8125,0.70313 -3.51562,-1.40625 -0.70313,-0.70312 -2.10938,-4.21875 -0.70312,-2.10937 -1.40625,-2.8125 -1.40625,-4.21875 1.40625,-4.21875 7.73438,-1.40625 15.46875,-3.51562 -1.40625,-8.4375 -4.92187,-11.95313 -4.21875,-3.51562 -5.625,-3.51562 z m 85.07812,23.90625 q -4.92187,2.10937 -9.84375,5.625 -0.70312,0.70312 -0.70312,0.70312 -1.40625,0.70313 -2.8125,1.40625 -0.70313,1.40625 -1.40625,1.40625 -2.10938,0 -2.8125,-0.70312 -0.70313,-0.70313 -2.8125,-5.625 -1.40625,-4.92188 0.70312,-4.92188 1.40625,-0.70312 4.92188,-2.10937 2.8125,-1.40625 4.92187,-2.10938 2.10938,-1.40625 6.32813,-3.51562 2.8125,-1.40625 4.21875,-2.10938 4.21875,-2.8125 4.92187,-4.92187 1.40625,-2.10938 8.4375,2.8125 0.70313,0.70312 1.40625,1.40625 4.92188,4.21875 4.21875,7.73437 -1.40625,2.8125 -7.73437,12.65625 -7.03125,8.4375 -19.6875,30.23438 3.51562,-2.10938 11.25,4.21875 7.03125,6.32812 7.03125,18.98437 -0.70313,11.95313 -7.03125,16.17188 -7.73438,4.92187 -9.84375,0 -2.10938,-4.92188 -4.92188,-7.03125 -1.40625,-2.10938 -5.625,-2.8125 -3.51562,-0.70313 -3.51562,-0.70313 -0.70313,-0.70312 2.10937,-0.70312 1.40625,-0.70313 2.10938,-0.70313 4.92187,-0.70312 9.14062,-0.70312 4.21875,0 5.625,-2.10938 1.40625,-2.10937 1.40625,-7.73437 0,-4.92188 -2.10937,-9.14063 -2.8125,-4.21875 -7.03125,-5.625 -0.70313,1.40625 -2.8125,2.8125 -2.10938,3.51563 -2.8125,3.51563 -1.40625,0 -1.40625,-2.10938 0,-0.70312 2.10937,-6.32812 2.10938,-4.21875 2.8125,-6.32813 2.10938,-4.21875 5.625,-16.17187 3.51563,-9.84375 5.625,-15.46875 z m -31.64062,50.625 0,-35.15625 q 0,-10.54688 -0.70313,-12.65625 -0.70312,-1.40625 -2.10937,-3.51563 -1.40625,-1.40625 1.40625,-2.8125 0,0 0.70312,0 2.10938,-1.40625 4.21875,-0.70312 0.70313,0 2.8125,2.8125 0.70313,1.40625 1.40625,2.10937 2.10938,4.21875 2.10938,8.4375 0,4.92188 0,43.59375 0,39.375 0,54.14063 -1.40625,14.0625 -2.8125,19.6875 -0.70313,1.40625 -1.40625,3.51562 -1.40625,2.8125 -2.10938,2.8125 -1.40625,0 -2.10937,-2.8125 -0.70313,-0.70312 -0.70313,-1.40625 -1.40625,-4.21875 -0.70312,-28.125 0,-25.3125 0,-49.92187 z"
         style="font-style:normal;font-variant:normal;font-weight:normal;font-stretch:normal;font-size:180px;font-family:FZSuXinShiLiuKaiS-R-GB;-inkscape-font-specification:FZSuXinShiLiuKaiS-R-GB"
         id="path4210" />
    </g>
  </g>
</svg>
