<?xml version="1.0" encoding="UTF-8" standalone="no"?>
<!-- Created with Inkscape (http://www.inkscape.org/) -->

<svg
   xmlns:dc="http://purl.org/dc/elements/1.1/"
   xmlns:cc="http://creativecommons.org/ns#"
   xmlns:rdf="http://www.w3.org/1999/02/22-rdf-syntax-ns#"
   xmlns:svg="http://www.w3.org/2000/svg"
   xmlns="http://www.w3.org/2000/svg"
   xmlns:sodipodi="http://sodipodi.sourceforge.net/DTD/sodipodi-0.dtd"
   xmlns:inkscape="http://www.inkscape.org/namespaces/inkscape"
   width="132.40192mm"
   height="18.575954mm"
   viewBox="0 0 469.14065 65.820311"
   id="svg2"
   version="1.1"
   inkscape:version="0.91 r13725"
   sodipodi:docname="url_2path.svg">
  <defs
     id="defs4" />
  <sodipodi:namedview
     id="base"
     pagecolor="#ffffff"
     bordercolor="#666666"
     borderopacity="1.0"
     inkscape:pageopacity="0.0"
     inkscape:pageshadow="2"
     inkscape:zoom="2.3264444"
     inkscape:cx="229.44645"
     inkscape:cy="-23.997263"
     inkscape:document-units="px"
     inkscape:current-layer="layer1"
     showgrid="false"
     fit-margin-top="0"
     fit-margin-left="0"
     fit-margin-right="0"
     fit-margin-bottom="0"
     inkscape:window-width="1920"
     inkscape:window-height="1016"
     inkscape:window-x="1909"
     inkscape:window-y="-11"
     inkscape:window-maximized="1" />
  <metadata
     id="metadata7">
    <rdf:RDF>
      <cc:Work
         rdf:about="">
        <dc:format>image/svg+xml</dc:format>
        <dc:type
           rdf:resource="http://purl.org/dc/dcmitype/StillImage" />
        <dc:title></dc:title>
      </cc:Work>
    </rdf:RDF>
  </metadata>
  <g
     inkscape:label="Layer 1"
     inkscape:groupmode="layer"
     id="layer1"
     transform="translate(-125.45068,-445.40182)">
    <g
       style="font-style:normal;font-weight:normal;font-size:40px;line-height:125%;font-family:sans-serif;letter-spacing:0px;word-spacing:0px;fill:#000000;fill-opacity:1;stroke:none;stroke-width:1px;stroke-linecap:butt;stroke-linejoin:miter;stroke-opacity:1"
       id="text4136">
      <path
         d="m 125.45068,445.40182 6.79687,0 0,23.75 q 2.8125,-3.24218 5.23438,-4.6875 2.46093,-1.48437 5.97656,-1.48437 4.10156,0 7.07031,3.16406 3.00781,3.125 3.00781,7.5 l 0,22.46094 -6.79687,0 0,-20.54688 q 0,-3.04687 -1.5625,-4.88281 -1.52344,-1.83594 -4.0625,-1.83594 -3.67188,0 -6.28906,2.77344 -2.57813,2.77344 -2.57813,6.71875 l 0,17.77344 -6.79687,0 0,-50.70313 z"
         style="font-style:normal;font-variant:normal;font-weight:normal;font-stretch:normal;font-size:80px;font-family:'Tw Cen MT';-inkscape-font-specification:'Tw Cen MT'"
         id="path3390" />
      <path
         d="m 189.08349,463.87839 6.79687,0 0,32.22656 -6.79687,0 0,-6.40625 q -4.96094,7.30469 -12.30469,7.30469 -6.36719,0 -10.89844,-5 -4.49218,-5 -4.49218,-12.14844 0,-6.75781 4.53125,-11.79688 4.57031,-5.07812 10.70312,-5.07812 3.78906,0 7.1875,2.07031 3.39844,2.07031 5.27344,5.39063 l 0,-6.5625 z m 0.89844,16.21093 q 0,-4.41406 -3.16407,-7.53906 -3.16406,-3.16406 -7.57812,-3.16406 -4.29688,0 -7.5,3.125 -3.20313,3.125 -3.20313,7.34375 0,4.57031 3.125,7.77344 3.125,3.20312 7.57813,3.20312 4.41406,0 7.57812,-3.16406 3.16407,-3.20313 3.16407,-7.57813 z"
         style="font-style:normal;font-variant:normal;font-weight:normal;font-stretch:normal;font-size:80px;font-family:'Tw Cen MT';-inkscape-font-specification:'Tw Cen MT'"
         id="path3392" />
      <path
         d="m 204.9038,453.29245 q 0,-2.10938 1.5625,-3.63281 1.5625,-1.5625 3.71094,-1.5625 2.10937,0 3.63281,1.5625 1.5625,1.52343 1.5625,3.63281 0,2.14844 -1.5625,3.67187 -1.52344,1.52344 -3.63281,1.52344 -2.14844,0 -3.71094,-1.52344 -1.5625,-1.52343 -1.5625,-3.67187 z m 1.91406,10.58594 6.71875,0 0,32.22656 -6.71875,0 0,-32.22656 z"
         style="font-style:normal;font-variant:normal;font-weight:normal;font-stretch:normal;font-size:80px;font-family:'Tw Cen MT';-inkscape-font-specification:'Tw Cen MT'"
         id="path3394" />
      <path
         d="m 223.26318,445.40182 6.75781,0 0,32.61719 13.35937,-14.14062 8.78907,0 -13.94532,14.88281 14.10157,17.34375 -8.39844,0 -13.90625,-17.03125 0,17.03125 -6.75781,0 0,-50.70313 z"
         style="font-style:normal;font-variant:normal;font-weight:normal;font-stretch:normal;font-size:80px;font-family:'Tw Cen MT';-inkscape-font-specification:'Tw Cen MT'"
         id="path3396" />
      <path
         d="m 289.2788,481.30026 -27.5,0 q 0.89844,4.96094 4.0625,7.26563 3.20313,2.26562 6.95313,2.26562 5.78125,0 9.6875,-4.80469 l 4.96093,3.75 q -5.58593,7.22657 -14.96093,7.22657 -7.1875,0 -12.03125,-4.92188 -4.84375,-4.92187 -4.84375,-12.22656 0,-6.83594 4.88281,-11.83594 4.92187,-5.03906 11.99219,-5.03906 6.95312,0 11.91406,5.11719 4.96094,5.07812 4.88281,13.20312 z m -26.79687,-5.42969 19.6875,0 q -3.28125,-6.64062 -9.6875,-6.64062 -6.99219,0 -10,6.64062 z"
         style="font-style:normal;font-variant:normal;font-weight:normal;font-stretch:normal;font-size:80px;font-family:'Tw Cen MT';-inkscape-font-specification:'Tw Cen MT'"
         id="path3398" />
      <path
         d="m 296.58349,445.40182 6.71875,0 0,24.84375 q 4.33594,-7.26562 12.42187,-7.26562 6.25,0 10.82032,5 4.60937,5 4.60937,11.875 0,6.875 -4.53125,12.03125 -4.49219,5.11719 -10.50781,5.11719 -3.86719,0 -7.34375,-2.07032 -3.47656,-2.07031 -5.46875,-5.625 l 0,6.79688 -6.71875,0 0,-50.70313 z m 27.38281,34.45313 q 0,-4.41406 -3.16406,-7.53906 -3.16406,-3.16407 -7.65625,-3.16407 -4.33594,0 -7.53906,3.20313 -3.16407,3.16406 -3.16407,7.5 0,4.53125 3.16407,7.65625 3.20312,3.08594 7.85156,3.08594 4.29687,0 7.38281,-3.16407 3.125,-3.16406 3.125,-7.57812 z"
         style="font-style:normal;font-variant:normal;font-weight:normal;font-stretch:normal;font-size:80px;font-family:'Tw Cen MT';-inkscape-font-specification:'Tw Cen MT'"
         id="path3400" />
      <path
         d="m 366.89599,463.87839 6.79687,0 0,32.22656 -6.79687,0 0,-6.40625 q -4.96094,7.30469 -12.30469,7.30469 -6.36719,0 -10.89844,-5 -4.49218,-5 -4.49218,-12.14844 0,-6.75781 4.53125,-11.79688 4.57031,-5.07812 10.70312,-5.07812 3.78906,0 7.1875,2.07031 3.39844,2.07031 5.27344,5.39063 l 0,-6.5625 z m 0.89844,16.21093 q 0,-4.41406 -3.16407,-7.53906 -3.16406,-3.16406 -7.57812,-3.16406 -4.29688,0 -7.5,3.125 -3.20313,3.125 -3.20313,7.34375 0,4.57031 3.125,7.77344 3.125,3.20312 7.57813,3.20312 4.41406,0 7.57812,-3.16406 3.16407,-3.20313 3.16407,-7.57813 z"
         style="font-style:normal;font-variant:normal;font-weight:normal;font-stretch:normal;font-size:80px;font-family:'Tw Cen MT';-inkscape-font-specification:'Tw Cen MT'"
         id="path3402" />
      <path
         d="m 382.7163,496.10495 0,-32.22656 6.64063,0 0,5.35156 q 2.92968,-3.24219 5.3125,-4.72656 2.38281,-1.52344 5.3125,-1.52344 4.375,0 7.46093,2.89062 3.125,2.89063 3.125,6.95313 l 0,23.28125 -6.79687,0 0,-21.28906 q 0,-2.61719 -1.71875,-4.33594 -1.67969,-1.71875 -4.29688,-1.71875 -3.39843,0 -5.85937,2.89062 -2.46094,2.85157 -2.46094,6.91407 l 0,17.53906 -6.71875,0 z"
         style="font-style:normal;font-variant:normal;font-weight:normal;font-stretch:normal;font-size:80px;font-family:'Tw Cen MT';-inkscape-font-specification:'Tw Cen MT'"
         id="path3404" />
      <path
         d="m 445.80224,463.87839 6.64062,0 0,30.9375 q 0,6.83593 -4.72656,11.60156 -4.6875,4.80469 -11.36719,4.80469 -5.07812,0 -9.33593,-2.77344 -4.25782,-2.73438 -6.25,-8.35938 l 7.03125,0 q 3.16406,5.23438 8.78906,5.23438 3.82812,0 6.52344,-2.77344 2.69531,-2.73437 2.69531,-6.60156 l 0,-6.09375 q -4.92188,7.14844 -12.42188,7.14844 -6.17187,0 -10.78125,-5.07813 -4.57031,-5.11719 -4.57031,-12.07031 0,-6.95313 4.45313,-11.91406 4.49218,-4.96094 10.66406,-4.96094 7.96875,0 12.65625,7.69531 l 0,-6.79687 z m 0.9375,16.05468 q 0,-4.53125 -3.16406,-7.57812 -3.125,-3.04688 -7.77344,-3.04688 -4.25781,0 -7.5,3.16407 -3.24219,3.16406 -3.24219,7.30468 0,4.49219 3.20313,7.73438 3.20312,3.24219 7.61718,3.24219 4.49219,0 7.65625,-3.16407 3.20313,-3.16406 3.20313,-7.65625 z"
         style="font-style:normal;font-variant:normal;font-weight:normal;font-stretch:normal;font-size:80px;font-family:'Tw Cen MT';-inkscape-font-specification:'Tw Cen MT'"
         id="path3406" />
      <path
         d="m 460.45068,491.53464 q 0,-2.14844 1.52343,-3.71094 1.5625,-1.5625 3.75,-1.5625 2.14844,0 3.71094,1.5625 1.5625,1.5625 1.5625,3.71094 0,2.1875 -1.5625,3.75 -1.52344,1.52343 -3.71094,1.52343 -2.1875,0 -3.75,-1.52343 -1.52343,-1.52344 -1.52343,-3.75 z"
         style="font-style:normal;font-variant:normal;font-weight:normal;font-stretch:normal;font-size:80px;font-family:'Tw Cen MT';-inkscape-font-specification:'Tw Cen MT'"
         id="path3408" />
      <path
         d="m 503.30224,486.2612 0,7.77344 q -5.19531,2.96875 -10.07813,2.96875 -6.67968,0 -11.71875,-5 -5,-5.03907 -5,-11.64063 0,-7.5 5,-12.42187 5,-4.96094 12.53907,-4.96094 4.49218,0 9.25781,2.34375 l 0,7.57812 q -5.11719,-3.28125 -9.6875,-3.28125 -4.21875,0 -7.38281,2.96875 -3.16407,2.96875 -3.16407,6.95313 0,4.49219 2.96875,7.57812 2.96875,3.04688 7.26563,3.04688 4.375,0 10,-3.90625 z"
         style="font-style:normal;font-variant:normal;font-weight:normal;font-stretch:normal;font-size:80px;font-family:'Tw Cen MT';-inkscape-font-specification:'Tw Cen MT'"
         id="path3410" />
      <path
         d="m 508.10693,479.85495 q 0,-6.60156 5.19531,-11.71875 5.23437,-5.15625 11.99219,-5.15625 6.95312,0 12.14843,5.07812 5.19532,5.03907 5.19532,11.79688 0,6.79687 -5.11719,11.99219 -5.07813,5.15625 -11.75781,5.15625 -7.14844,0 -12.42188,-5.11719 -5.23437,-5.11719 -5.23437,-12.03125 z m 27.96875,0 q 0,-4.10156 -3.125,-7.10938 -3.125,-3.04687 -7.42188,-3.04687 -4.41406,0 -7.61719,3.08594 -3.16406,3.04687 -3.16406,7.30468 0,4.0625 3.20313,7.10938 3.24218,3.04687 7.57812,3.04687 4.21875,0 7.38281,-3.125 3.16407,-3.125 3.16407,-7.26562 z"
         style="font-style:normal;font-variant:normal;font-weight:normal;font-stretch:normal;font-size:80px;font-family:'Tw Cen MT';-inkscape-font-specification:'Tw Cen MT'"
         id="path3412" />
      <path
         d="m 549.2788,496.10495 0,-32.22656 6.71875,0 0,4.96093 q 2.38281,-3.04687 4.53125,-4.45312 2.1875,-1.40625 5,-1.40625 3.67188,0 5.74219,1.60156 2.10937,1.60156 3.55469,5.11719 2.53906,-3.51563 4.88281,-5.11719 2.38281,-1.60156 5.50781,-1.60156 3.82813,0 6.60156,2.89062 2.77344,2.85157 2.77344,6.79688 l 0,23.4375 -6.75781,0 0,-21.67969 q 0,-5.35156 -5.27344,-5.35156 -3.00781,0 -5.11719,2.73437 -2.07031,2.73438 -2.07031,6.75782 l 0,17.53906 -6.79687,0 0,-20.78125 q 0,-6.32813 -5.19532,-6.32813 -3.08593,0 -5.23437,2.57813 -2.14844,2.57812 -2.14844,6.36719 l 0,18.16406 -6.71875,0 z"
         style="font-style:normal;font-variant:normal;font-weight:normal;font-stretch:normal;font-size:80px;font-family:'Tw Cen MT';-inkscape-font-specification:'Tw Cen MT'"
         id="path3414" />
    </g>
  </g>
</svg>
